<?xml version="1.0" encoding="utf-8"?>
<!-- Generator: Adobe Illustrator 24.2.3, SVG Export Plug-In . SVG Version: 6.00 Build 0)  -->
<svg version="1.1" id="Layer_1" xmlns="http://www.w3.org/2000/svg" xmlns:xlink="http://www.w3.org/1999/xlink" x="0px" y="0px"
	 viewBox="0 0 64 75" style="enable-background:new 0 0 64 75;" xml:space="preserve">
<style type="text/css">
	.st0{fill:none;}
	.st1{fill:#B0C54C;}
	.st2{fill:none;stroke:#444444;stroke-width:1.15;stroke-linecap:round;stroke-linejoin:round;}
</style>
<path class="st0" d="M42.5,41.2c-3.2-2.2-7.1-3.4-7.1-3.4v-1.1c0,0,12.1-3.6,10.8-14.9s-22-12.5-24.2-1s6.7,14.5,6.7,14.5l0.3,3
	c0,0-2.6,0.1-5.3,1.8c-2.7,1.8-4,2.4-4,2.4l-7.3-3.4c0,0-4.1-3.8-5.2-0.3c-1.2,3.5,2.7,3.8,2.7,3.8s5.6,5.5,8.2,5.3s5.8-1.9,5.8-1.9
	l-1,19.5c0,0,10.9,1.3,17.1,0l-0.9-20.6l5.1,13.8c0,0,0.4,3.2,2.6,3.3c2.2,0.1,1.3-4.2,1.3-4.2S45.7,43.4,42.5,41.2z"/>
<g>
	<g>
		<g id="icon_kid" transform="translate(996 -339)">
			<g id="Group_3756" transform="translate(-1138.276 341.84)">
				<path id="Path_4360" class="st1" d="M169,36c-1.8,0.7-3.5,1.4-5.3,2.2c-1.2,0.5-2.6,1.2-4,1.1c-1.9-0.2-5.2-4-6.6-1.4
					c-3.1,6.3,7.5,6.8,11.2,5.8c0.2-0.1,0.5-0.1,0.7-0.1c0.4,0.1,0.5,0.6,0.6,1c0.5,3.5-0.7,7.2,0.6,10.5c0.1,0.3,0.3,0.6,0.6,0.9
					c0.3,0.1,0.5,0.2,0.8,0.2l12.1,0.6c0.6,0.2,1.2-0.1,1.4-0.6c0.1-0.2,0.1-0.4,0-0.6c0-3.6,0-7.3-0.2-10.9l4.5,7.3
					c0.4,0.8,1.1,1.6,1.8,2.1c0.8,0.5,1.9,0.4,2.6-0.2c0.6-0.8,0.3-1.9,0-2.8c-1.2-3.4-2-7.1-3.9-10.2c-1.2-2-3-3.6-5.2-4.5
					c-0.6-0.3-1.3-0.4-2-0.3c-2,0.2-3.1,2.4-5,3c-1.6,0.5-4.1-0.2-4.5-2.2"/>
				<g id="Group_3752">
					<path id="Path_4423" class="st2" d="M170,10.8c-2.4,1.1-4.3,3-5.4,5.5c-1.3,2.7-1,5.9-0.2,8.8c1.9,7.4,10,10.4,16.6,7
						c5.1-2.8,7.8-8.6,6.7-14.3c-0.3-1.3-0.8-2.5-1.5-3.6c-2-2.7-5.5-3.8-8.8-4.2c-2.5-0.3-5.1-0.3-7.3,1"/>
					<path id="Path_4424" class="st2" d="M171,33.9v1.5"/>
					<path id="Path_4425" class="st2" d="M178,34.9c2.4,0.7,4.9,1.5,6.6,3.4c0.7,0.8,1.3,1.7,1.8,2.7c2.1,4,3.6,8.3,4.2,12.8"/>
					<path id="Path_4426" class="st2" d="M170.7,35.7c-1.4-0.4-3-0.1-4.2,0.7c-1.3,0.8-2.3,1.8-3.5,2.6c-0.4,0.3-0.8,0.5-1.3,0.6
						c-0.7,0.1-1.3-0.1-1.9-0.4c-1.8-0.8-3.6-1.8-5.2-3"/>
					<path id="Path_4427" class="st2" d="M154.4,36.3c-0.6,0.9-1.1,1.8-1.5,2.7c-0.2,0.4-0.3,0.8-0.2,1.2s0.4,0.7,0.7,0.9
						c1.2,1.2,2.5,2.2,4,3c1.4,0.9,3.1,1.2,4.8,1c1.5-0.3,2.8-1,3.9-2"/>
					<path id="Path_4428" class="st2" d="M186.4,55.2c1.3,0.3,2.7,0,3.7-0.9"/>
					<path id="Path_4429" class="st2" d="M185.8,55.4c-1.6-4.5-4.2-8.7-4.6-13.5"/>
					<path id="Path_4430" class="st2" d="M166.1,42.1l-0.2,12.7"/>
					<path id="Path_4431" class="st2" d="M165.6,55.8c5.1,1.3,10.4,1.6,15.7,1.1c0.1,0,0.3,0,0.4-0.1c0.1-0.1,0.1-0.3,0.1-0.5
						c-0.2-3.7-0.3-7.5-0.2-11.2"/>
					<path id="Path_4432" class="st2" d="M166,55.8c-0.2,2.3-0.6,4.6-1,6.9"/>
					<path id="Path_4433" class="st2" d="M181.9,56.7c-0.1,2,0,4,0.1,5.9"/>
					<path id="Path_4434" class="st2" d="M153.3,36.1c-0.1-1.2-1.1-2-2.3-1.9c-0.7,0.1-1.3,0.4-1.6,1c-0.1,0.2-0.2,0.5-0.3,0.7
						c-0.2,0.5-0.2,0.9-0.1,1.4c0.1,0.7,0.5,1.3,1.1,1.7s1.2,0.6,1.9,0.7"/>
					<path id="Path_4435" class="st2" d="M186.3,55.8c0.1,0.7-0.2,1.4,0.1,2c0.2,0.2,0.4,0.4,0.6,0.6c0.4,0.3,0.8,0.5,1.2,0.7
						c0.7,0.1,1.4-0.1,1.8-0.6c0.4-0.7,0.6-1.4,0.5-2.2c0-0.5-0.1-0.9-0.3-1.4"/>
					<path id="Path_4436" class="st2" d="M168.6,20.2c0.6-0.4,1.4-0.3,1.9,0.2c0.1,0.1,0.2,0.3,0.2,0.4"/>
					<path id="Path_4437" class="st2" d="M180.6,23.9c0.6-0.5,1.4-0.4,1.8,0.2c0.2,0.2,0.3,0.6,0.3,0.9"/>
					<path id="Path_4438" class="st2" d="M177.5,33.9V35"/>
					<path id="Path_4439" class="st2" d="M163.9,17c6.8,0.1,13.8,0.1,19.5-5.3"/>
					<path id="Path_4440" class="st2" d="M183.6,11.8c-0.7,5.1,0.3,10.3,2.8,14.9"/>
					<path id="Path_4441" class="st2" d="M171.3,26.9c-0.1,0.5,0,1,0.4,1.4s0.8,0.6,1.3,0.7c0.8,0.3,1.8,0,2.3-0.6"/>
					<path id="Path_4442" class="st2" d="M169.7,36.3c0.3,0.6,0.9,1.1,1.6,1.2c1.2,0.5,2.6,0.5,3.9,0.3c1.3-0.3,2.4-1.1,3-2.3"/>
					<path id="Path_4443" class="st2" d="M189.2,19.1c-0.1,0.6-0.2,1.2-0.3,1.8c0,0.2,0.1,0.5,0.3,0.5c0.1,0,0.2-0.2,0.2-0.4
						c0.1-0.7,0-1.3-0.1-2"/>
					<path id="Path_4444" class="st2" d="M191.6,19.4c1.3,0,2.5,0.8,3,2s0.7,2.5,0.6,3.8c0.1,1.8,0,3.6-0.4,5.4l-1.4-1.9
						c-1-1.3-1.9-2.7-2.6-4.2c-0.7-1.5-0.8-3.2-0.4-4.8c0-0.2,0.1-0.3,0.3-0.4s0.4,0.1,0.3,0.3"/>
				</g>
			</g>
		</g>
	</g>
</g>
</svg>
