<?xml version="1.0" encoding="utf-8"?>
<!-- Generator: Adobe Illustrator 24.2.3, SVG Export Plug-In . SVG Version: 6.00 Build 0)  -->
<svg version="1.1" id="Layer_1" xmlns="http://www.w3.org/2000/svg" xmlns:xlink="http://www.w3.org/1999/xlink" x="0px" y="0px"
	 viewBox="0 0 64 75" style="enable-background:new 0 0 64 75;" xml:space="preserve">
<style type="text/css">
	.st0{fill:none;}
	.st1{fill:#F05824;}
	.st2{fill:none;stroke:#444444;stroke-width:1.15;stroke-linecap:round;stroke-linejoin:round;}
</style>
<g>
	<g>
		<g id="icon_teen" transform="translate(848 -339)">
			<g id="Group_3758" transform="translate(-1137.776 341.34)">
				<path class="st0" d="M335.1,32.4c-0.7-4.1-0.9-8.3-0.6-12.5c0,0,0-0.7,0.1-1.9c0.2-4.6-1.6-9-4.9-12c-3.5-3-9-4.2-13.3-2.3
					L315.5,4c-2,0.9-3.8,2.3-5.1,4.2c-2.2,3-3.1,6.8-2.4,10.4l-0.1,0.4c0.1,4.1-0.3,8.3-1.1,12.3c-0.1,0.3-0.1,0.5-0.1,0.8
					c0.1,0.4,0.3,0.7,0.6,0.9c1.3,0.9,2.9,1.3,4.5,1.2l5.7-1.3c0.2,0.9,0.9,1.7,1.8,2.1c0.9,0.4,1.8,0.5,2.8,0.5
					c0.8,0.1,1.6,0,2.4-0.3s1.4-0.9,1.6-1.8l3.1,0.2c1.7,0,3.5,0,5.2,0c0.1,0,0.3,0,0.5-0.1C335.2,33.3,335.2,32.8,335.1,32.4z"/>
				<path id="Path_4361_1_" class="st1" d="M325,34.9c-1.9,0.6-3.9,0.3-5.5-0.8c-0.3-0.2-0.7-0.5-1-0.6c-0.4-0.2-0.8-0.2-1.2-0.2
					c-2.8,0.1-5.2,2.5-6.1,5.2s-0.7,5.7-0.4,8.6c0.8,6,1.8,13,4.7,17.9c-1.3-8.5-1.8-17.2-1.7-25.7c-0.2,7.9,0.3,15.8,1.5,23.6
					c0.1,1.1,0.5,2.3,1.1,3.1c1.5,1.8,10.2,0.6,10.2,0.6s-0.6-2.5-0.4-4.4c0.5-2.4,0.8-4.9,0.9-7.2c0.4-3.7,0.5-7.4,0.5-11.2
					c-0.2-1.3,0-2.7,0.4-3.9c-0.2,0.5,0.3,2,0.4,2.5c0.1,0.9,0.3,1.9,0.4,2.7c0.3,1.6,0.4,3.1,0.4,4.8c-0.1,1.7-0.6,3.3-0.6,5.1
					c-0.1,2-0.6,3-1.4,4.9c-0.8,1.8-1.1,3.6-1,5.6c0.1,1.2,1.2,2.8,2.5,1.7c1.3-1.1,1.3-4.9,1.4-6.4c0.2-2.4,1-4.5,1.1-6.9
					c0.2-3.8,0-7.8-0.4-11.6c-0.3-2.2,0-4.7-1.2-6.5c-1-1.6-3.3-2.3-4.6-1"/>
				<path id="Path_4361" class="st1" d="M325,35.8c-1.9,0.6-3.9,0.3-5.5-0.8c-0.3-0.2-0.7-0.5-1-0.6c-0.4-0.2-0.8-0.2-1.2-0.2
					c-2.8,0.1-5.2,2.4-6.1,5s-0.7,5.5-0.4,8.3c0.8,6,2.4,11.9,4.7,17.5c-1.3-8.2-1.8-16.6-1.7-24.9c-0.2,7.6,0.3,15.3,1.5,22.8
					c0.1,1.1,0.5,2.2,1.1,3c1.5,1.7,4.2,1.1,6.4,0.2c1.8-0.5,3.2-2,3.4-3.9c0.5-2.3,0.8-4.7,0.9-7c0.4-3.6,0.5-7.2,0.5-10.8
					c-0.2-1.3,0-2.6,0.4-3.8c-0.2,0.5,0.3,1.9,0.4,2.4c0.1,0.9,0.3,1.8,0.4,2.6c0.3,1.5,0.4,3,0.4,4.6c-0.1,1.6-0.6,3.2-0.6,4.9
					c-0.1,1.9-0.6,2.9-1.4,4.7c-0.8,1.7-1.1,3.5-1,5.4c0.1,1.2,1.2,2.7,2.5,1.6s1.3-4.7,1.4-6.2c0.2-2.3,1-4.4,1.1-6.7
					c0.2-3.7,0-7.5-0.4-11.2c-0.3-2.1,0-4.5-1.2-6.3c-1-1.5-3.3-2.2-4.6-1"/>
				<g id="Group_3751">
					<path id="Path_4405" class="st2" d="M315.6,4c-2.1,0.9-3.9,2.3-5.2,4.2c-3,4-3.5,9.4-1.3,13.9c2.5,4.6,7.4,7.5,12.7,7.5
						c5.3,0,10.5-3.4,12.1-8c0.4-1.2,0.6-2.4,0.7-3.6c0.3-4.5-1.5-8.9-4.8-12c-3.5-3-9-4.2-13.3-2.3"/>
					<path id="Path_4406" class="st2" d="M319.9,29.2l-0.6,3.9"/>
					<path id="Path_4407" class="st2" d="M322.3,30.4c0.1,0.9,0.1,1.9-0.1,2.8"/>
					<path id="Path_4408" class="st2" d="M318.5,33.3c-2.2-0.4-4.5,0.4-6,2.1c-1.7,2-1.9,4.8-2,7.5c-0.1,8,0.5,16.4,5.1,23"/>
					<path id="Path_4409" class="st2" d="M323.2,32.9l4.1,0.7c0.7,0.1,1.3,0.3,1.9,0.6c0.9,0.8,1.5,1.9,1.5,3.1
						c1.7,10,0.8,20.3-2.7,29.9"/>
					<path id="Path_4410" class="st2" d="M313.8,38.4c0.3,8.2,0.8,16.3,1.5,24.4"/>
					<path id="Path_4411" class="st2" d="M327.5,38.9l-0.9,27.6"/>
					<path id="Path_4412" class="st2" d="M317.5,32.8c0.2,0.9,0.9,1.7,1.8,2.1c0.9,0.4,1.8,0.5,2.8,0.5c0.8,0.1,1.6,0,2.4-0.3
						s1.4-0.9,1.6-1.8"/>
					<path id="Path_4413" class="st2" d="M319.8,6.4c-3.6,2.6-7.2,5.2-11,7.6"/>
					<path id="Path_4414" class="st2" d="M313.2,17.1c-0.1,0.2-0.2,0.5-0.2,0.7c0,0.3,0.1,0.5,0.3,0.7c0.1,0.1,0.1,0.1,0.2,0.1
						s0.1-0.1,0.1-0.1c0.2-0.4,0.3-0.8,0.1-1.3c-0.1-0.2-0.2-0.4-0.4-0.3C313.3,16.9,313.2,17,313.2,17.1V18"/>
					<path id="Path_4415" class="st2" d="M326.4,16.8c-0.1,0.4-0.1,0.7-0.2,1.1c0,0.2,0.1,0.6,0.3,0.6s0.3-0.3,0.4-0.5l0.1-0.5
						c0-0.2,0-0.3-0.1-0.5C326.9,16.8,326.7,16.8,326.4,16.8c-0.1,0.2-0.1,0.4-0.1,0.5"/>
					<path id="Path_4416" class="st2" d="M308,18.9c0.1,4.1-0.3,8.3-1.1,12.3c-0.1,0.3-0.1,0.5-0.1,0.8c0.1,0.4,0.3,0.7,0.6,0.9
						c1.3,0.9,2.9,1.3,4.5,1.2"/>
					<path id="Path_4417" class="st2" d="M334.6,19.8c-0.3,4.2-0.1,8.4,0.6,12.5c0.1,0.4,0.1,0.9-0.2,1.1c-0.2,0.1-0.4,0.1-0.5,0.1
						c-1.7,0-3.5,0-5.2,0"/>
					<path id="Path_4418" class="st2" d="M320,6.5c3.5,4,8.1,6.8,13.3,8.1"/>
					<path id="Path_4419" class="st2" d="M313.5,39.1c-0.5,8.7-0.1,17.8,3.4,25.7"/>
					<path id="Path_4420" class="st2" d="M316.6,65.3c3.2,1.1,6.6,1.4,9.9,0.9"/>
					<path id="Path_4421" class="st2" d="M327.9,38.6c2.5,7.5,1.2,15.7-0.7,23.3"/>
					<path id="Path_4422" class="st2" d="M321.7,23.2c0.6,1.1,1.9,1.4,3,0.8c0.5-0.3,0.9-0.8,1.1-1.4"/>
				</g>
			</g>
		</g>
	</g>
</g>
</svg>
