<?xml version="1.0" encoding="utf-8"?>
<!-- Generator: Adobe Illustrator 24.2.3, SVG Export Plug-In . SVG Version: 6.00 Build 0)  -->
<svg version="1.1" id="Layer_1" xmlns="http://www.w3.org/2000/svg" xmlns:xlink="http://www.w3.org/1999/xlink" x="0px" y="0px"
	 viewBox="0 0 64 75" style="enable-background:new 0 0 64 75;" xml:space="preserve">
<style type="text/css">
	.st0{fill:none;}
	.st1{fill:#F7CF1C;}
	.st2{fill:none;stroke:#444444;stroke-width:1.15;stroke-linecap:round;stroke-linejoin:round;}
</style>
<path class="st0" d="M23.9,63.1c0,0,5.6,2.7,17.7,1.3l0.7-12.8c0,0,0.7,5.6,3.1,4.9c2.4-0.7,2.5-6.7,0.2-11.2
	c-3.1-5.9-8.8-7.9-8.8-7.9s7.9-5.2,3.7-14.3s-15-5.6-17.2-2.1s-6.6,12.1,4.6,16.4l-0.1,1.4c0,0-4.9,1.5-6.4,4.8s-4.9,10.3-2.1,12.1
	s4.2-3.5,4.2-3.5L23.9,63.1z"/>
<g>
	<g>
		<g id="icon_toddler" transform="translate(1070 -339)">
			<g id="Group_3755" transform="translate(-1136.776 341.34)">
				<path id="Path_4359" class="st1" d="M103.1,35.6c1.3-0.1,2.6,0.2,3.7,0.9c4.4,2.6,7.2,7.3,7.4,12.4c-1.2,0.7-2.6,1.2-4,1.5
					c-0.1,0-0.2,0-0.3,0c-0.1-0.1-0.2-0.1-0.2-0.2l-0.5-1.1c-0.3,1.3-0.5,2.7-0.6,4c-5.3,2.1-11.2,2.5-16.8,1
					c-0.1,0-0.2-0.1-0.3-0.1c-0.1-0.1-0.1-0.2-0.1-0.3l-0.6-3.5l-5.1-1c0.7-5.7,4.6-10.6,10-12.5c0.1-0.1,0.3-0.1,0.4-0.1
					c0.2,0,0.4,0.1,0.6,0.2c1.1,0.6,2.3,0.9,3.6,0.8c1.3-0.1,2.4-0.8,3-1.9"/>
				<g id="Group_3747" transform="translate(-1)">
					<g id="Group_3746">
						<path id="Path_4363" class="st2" d="M109,29.6c0.7-1.8,0.9-3.8,0.6-5.7c-0.6-3.3-2.7-6.2-5.7-7.8c-5.4-2.6-11.9-0.3-14.5,5.1
							c-0.3,0.6-0.5,1.2-0.7,1.9c-1,3.3-0.2,6.8,2.1,9.4c0.9,1.1,2,1.9,3.3,2.5c1.3,0.4,2.6,0.6,3.9,0.6
							C102.8,35.8,107.4,34.8,109,29.6z"/>
						<path id="Path_4364" class="st2" d="M104.3,35.6c1.3-0.1,2.6,0.2,3.6,0.9c1,0.6,1.9,1.3,2.8,2.1c2.4,2.2,3.8,6.9,4.2,8.7
							c0.4,1.6,0.5,3.3,0.3,4.9c-0.1,0.5-0.3,1-0.6,1.4c-0.3,0.4-0.8,0.6-1.3,0.5"/>
						<path id="Path_4365" class="st2" d="M97.2,36.4c-2.9-0.7-6.6,2.5-7.9,4.8c-1.2,2.5-2.2,5-2.9,7.6C86.2,49.4,86,50,86,50.6
							c-0.1,1.1,0.4,2.1,1.2,2.8c0.9,0.6,2.1,0.6,2.9-0.2c0.4-0.5,0.7-1.1,0.8-1.7l2.2-8"/>
						<path id="Path_4366" class="st2" d="M103.3,35c0.1,0.9-0.7,1.6-1.5,1.8c-1.9,0.6-4,0.1-5.4-1.3"/>
						<path id="Path_4367" class="st2" d="M109.4,53.7c-5.3,2.4-11.3,2.8-16.8,1"/>
						<path id="Path_4368" class="st2" d="M90.2,50.5c-0.9-0.1-1.9-0.2-2.8-0.5"/>
						<path id="Path_4369" class="st2" d="M108.1,42.9l3.5,10c0.2,0.6,0.5,1.3,1.1,1.4"/>
						<path id="Path_4370" class="st2" d="M114.9,49.8c-1.2,0.1-2.3,0.4-3.4,0.9"/>
						<path id="Path_4371" class="st2" d="M104.4,24.1c0.2,0.1,0.3,0.3,0.3,0.5c0,0.1-0.1,0.3-0.2,0.2c0,0-0.1,0-0.1-0.1
							c-0.1-0.1-0.2-0.3-0.3-0.5c-0.1-0.2,0-0.4,0.2-0.5h0.1c0,0,0,0,0,0.1c0.1,0.1,0.2,0.3,0.2,0.5s0,0.4-0.1,0.5
							c-0.1-0.1-0.3-0.2-0.4-0.3c-0.1-0.1-0.2-0.4-0.1-0.5"/>
						<path id="Path_4372" class="st2" d="M93,27.2c0.1,0.2,0.1,0.4,0.1,0.5s0,0.2-0.1,0.2c-0.1,0.1-0.2,0.1-0.3,0
							c-0.1-0.1-0.2-0.2-0.2-0.3c-0.1-0.1-0.1-0.2,0-0.4c0-0.1,0.1-0.2,0.3-0.2C92.9,27,92.9,27,93,27.2c0.2,0.1,0.2,0.4,0.2,0.7"/>
						<path id="Path_4373" class="st2" d="M102,28.4c-1.4,0.8-2.9,1.1-4.5,1.1c-0.1,0.8,0.2,1.6,0.8,2.2c0.6,0.5,1.3,0.7,2,0.5
							s1.3-0.6,1.7-1.2c0.3-0.8,0.3-1.6,0.1-2.4"/>
						<path id="Path_4374" class="st2" d="M109.8,49.7c0.2,4.1,0.1,8.1-0.3,12.2"/>
						<path id="Path_4375" class="st2" d="M91.8,52.4c0,2.8,0,5.5,0,8.3"/>
						<path id="Path_4376" class="st2" d="M100.7,59.2c0,0.7,0,1.4,0,2.1"/>
					</g>
				</g>
			</g>
		</g>
	</g>
</g>
</svg>
